<svg xmlns="http://www.w3.org/2000/svg" viewBox="0 0 1600 520" preserveAspectRatio="xMidYMid slice">
  <defs>
    <linearGradient id="bg" x1="0" y1="0" x2="1" y2="1">
      <stop offset="0%" stop-color="#7d6aa2"/>
      <stop offset="52%" stop-color="#5b4778"/>
      <stop offset="100%" stop-color="#3d2d54"/>
    </linearGradient>
  </defs>
  <rect width="1600" height="520" fill="url(#bg)"/>
  <g fill="none" stroke="#ffffff" stroke-opacity="0.16" stroke-width="2">
    <path d="M128 138 H1472"/>
    <path d="M128 390 H1472"/>
  </g>
  <g fill="#ffffff" fill-opacity="0.12">
    <rect x="250" y="108" width="360" height="304" rx="26"/>
    <rect x="675" y="78" width="338" height="364" rx="26"/>
    <rect x="1076" y="128" width="274" height="264" rx="26"/>
  </g>
  <g fill="none" stroke="#ffffff" stroke-opacity="0.48" stroke-width="7" stroke-linecap="round" stroke-linejoin="round">
    <path d="M348 190 H512"/>
    <path d="M348 250 H548"/>
    <path d="M348 310 H482"/>
    <path d="M730 196 H920"/>
    <path d="M730 256 H880"/>
    <path d="M730 316 H934"/>
    <path d="M1142 232 L1208 298 L1320 174"/>
  </g>
  <g fill="#ffffff" fill-opacity="0.62">
    <circle cx="306" cy="190" r="13"/>
    <circle cx="306" cy="250" r="13"/>
    <circle cx="306" cy="310" r="13"/>
    <circle cx="688" cy="196" r="13"/>
    <circle cx="688" cy="256" r="13"/>
    <circle cx="688" cy="316" r="13"/>
  </g>
  <g fill="none" stroke="#ffffff" stroke-opacity="0.2" stroke-width="5">
    <circle cx="1228" cy="246" r="138"/>
  </g>
</svg>
