<svg xmlns="http://www.w3.org/2000/svg" viewBox="0 0 1600 520" preserveAspectRatio="xMidYMid slice">
  <defs>
    <linearGradient id="bg" x1="0" y1="0" x2="1" y2="1">
      <stop offset="0%" stop-color="#6d5a9a"/>
      <stop offset="50%" stop-color="#4d3b72"/>
      <stop offset="100%" stop-color="#2f2247"/>
    </linearGradient>
  </defs>
  <rect width="1600" height="520" fill="url(#bg)"/>
  <g fill="#ffffff" fill-opacity="0.13">
    <rect x="224" y="120" width="170" height="300" rx="14"/>
    <rect x="430" y="88" width="190" height="332" rx="14"/>
    <rect x="658" y="138" width="174" height="282" rx="14"/>
    <rect x="868" y="104" width="204" height="316" rx="14"/>
    <rect x="1110" y="154" width="182" height="266" rx="14"/>
  </g>
  <g fill="none" stroke="#ffffff" stroke-opacity="0.56" stroke-width="7" stroke-linecap="round">
    <path d="M268 174 H350"/>
    <path d="M268 214 H338"/>
    <path d="M478 150 H570"/>
    <path d="M478 194 H556"/>
    <path d="M706 190 H788"/>
    <path d="M706 230 H776"/>
    <path d="M922 166 H1016"/>
    <path d="M922 210 H1000"/>
    <path d="M1160 212 H1248"/>
    <path d="M1160 252 H1232"/>
  </g>
  <g fill="#ffffff" fill-opacity="0.25">
    <rect x="1356" y="350" width="120" height="22" rx="11"/>
    <rect x="164" y="420" width="1260" height="20" rx="10"/>
  </g>
</svg>
