<svg xmlns="http://www.w3.org/2000/svg" viewBox="0 0 1600 900" preserveAspectRatio="xMidYMid slice">
  <defs>
    <linearGradient id="bg" x1="0" y1="0" x2="1" y2="1">
      <stop offset="0%" stop-color="#6d5a9a"/>
      <stop offset="50%" stop-color="#4d3b72"/>
      <stop offset="100%" stop-color="#2f2247"/>
    </linearGradient>
    <radialGradient id="glowA" cx="0.2" cy="0.2" r="0.65">
      <stop offset="0%" stop-color="#ffffff" stop-opacity="0.36"/>
      <stop offset="100%" stop-color="#ffffff" stop-opacity="0"/>
    </radialGradient>
    <radialGradient id="glowB" cx="0.85" cy="0.65" r="0.7">
      <stop offset="0%" stop-color="#d8c8ff" stop-opacity="0.3"/>
      <stop offset="100%" stop-color="#d8c8ff" stop-opacity="0"/>
    </radialGradient>
  </defs>
  <rect width="1600" height="900" fill="url(#bg)"/>
  <circle cx="360" cy="220" r="420" fill="url(#glowA)"/>
  <circle cx="1320" cy="720" r="520" fill="url(#glowB)"/>
  <g stroke="#ffffff" stroke-opacity="0.18" fill="none">
    <path d="M-60 660 C260 520 500 740 820 620 C1100 520 1320 700 1660 560" stroke-width="2"/>
    <path d="M-80 740 C240 600 520 820 860 700 C1160 600 1380 800 1700 660" stroke-width="1.6"/>
    <path d="M120 60 C340 180 520 100 780 220 C1020 340 1240 220 1460 320" stroke-width="1.4"/>
  </g>
  <g fill="#ffffff" fill-opacity="0.22">
    <circle cx="520" cy="330" r="8"/>
    <circle cx="750" cy="410" r="7"/>
    <circle cx="980" cy="350" r="8"/>
    <circle cx="1180" cy="470" r="7"/>
    <circle cx="410" cy="590" r="6"/>
    <circle cx="670" cy="640" r="7"/>
    <circle cx="920" cy="610" r="6"/>
  </g>
</svg>
