<svg xmlns="http://www.w3.org/2000/svg" viewBox="0 0 1600 520" preserveAspectRatio="xMidYMid slice">
  <defs>
    <linearGradient id="bg" x1="0" y1="0" x2="1" y2="1">
      <stop offset="0%" stop-color="#6d5a9a"/>
      <stop offset="50%" stop-color="#4d3b72"/>
      <stop offset="100%" stop-color="#2f2247"/>
    </linearGradient>
  </defs>
  <rect width="1600" height="520" fill="url(#bg)"/>
  <g fill="#ffffff" fill-opacity="0.13">
    <rect x="202" y="150" width="226" height="280" rx="16"/>
    <rect x="502" y="104" width="294" height="326" rx="16"/>
    <rect x="870" y="170" width="226" height="260" rx="16"/>
    <rect x="1170" y="132" width="236" height="298" rx="16"/>
  </g>
  <g fill="#ffffff" fill-opacity="0.54">
    <rect x="250" y="196" width="32" height="32" rx="5"/>
    <rect x="322" y="196" width="32" height="32" rx="5"/>
    <rect x="250" y="268" width="32" height="32" rx="5"/>
    <rect x="322" y="268" width="32" height="32" rx="5"/>
    <rect x="572" y="158" width="36" height="36" rx="5"/>
    <rect x="688" y="158" width="36" height="36" rx="5"/>
    <rect x="572" y="242" width="36" height="36" rx="5"/>
    <rect x="688" y="242" width="36" height="36" rx="5"/>
    <rect x="928" y="220" width="34" height="34" rx="5"/>
    <rect x="1002" y="220" width="34" height="34" rx="5"/>
    <rect x="1230" y="180" width="34" height="34" rx="5"/>
    <rect x="1310" y="180" width="34" height="34" rx="5"/>
    <rect x="1230" y="260" width="34" height="34" rx="5"/>
    <rect x="1310" y="260" width="34" height="34" rx="5"/>
  </g>
  <rect x="152" y="430" width="1296" height="22" rx="11" fill="#ffffff" fill-opacity="0.24"/>
</svg>
