<svg xmlns="http://www.w3.org/2000/svg" viewBox="0 0 1200 360" preserveAspectRatio="xMidYMid slice">
  <defs>
    <linearGradient id="bg" x1="0" y1="0" x2="1" y2="1">
      <stop offset="0%" stop-color="#a8b2c0"/>
      <stop offset="52%" stop-color="#8290a0"/>
      <stop offset="100%" stop-color="#657386"/>
    </linearGradient>
  </defs>
  <rect width="1200" height="360" fill="none"/>
  <g fill="none" stroke="#ffffff" stroke-opacity="0.16" stroke-width="2">
    <path d="M88 86 H1112"/>
    <path d="M88 266 H1112"/>
  </g>
  <g fill="#ffffff" fill-opacity="0.1">
    <rect x="128" y="86" width="230" height="188" rx="18"/>
    <rect x="488" y="64" width="224" height="232" rx="18"/>
    <rect x="842" y="100" width="230" height="168" rx="18"/>
  </g>
  <g fill="none" stroke="#ffffff" stroke-opacity="0.28" stroke-width="6" stroke-linecap="round" stroke-linejoin="round">
    <path d="M244 180 C338 118 430 112 522 166 C620 224 710 222 820 164 C900 122 978 132 1052 182"/>
    <path d="M244 180 V232"/>
    <path d="M958 182 V224"/>
  </g>
  <g fill="#ffffff" fill-opacity="0.28">
    <circle cx="244" cy="180" r="14"/>
    <circle cx="600" cy="166" r="14"/>
    <circle cx="958" cy="182" r="14"/>
  </g>
  <g fill="#ffffff" fill-opacity="0.18">
    <rect x="168" y="122" width="126" height="10" rx="5"/>
    <rect x="168" y="145" width="86" height="10" rx="5"/>
    <rect x="530" y="102" width="118" height="10" rx="5"/>
    <rect x="530" y="252" width="130" height="10" rx="5"/>
    <rect x="884" y="132" width="122" height="10" rx="5"/>
    <rect x="884" y="235" width="96" height="10" rx="5"/>
  </g>
</svg>
