<svg xmlns="http://www.w3.org/2000/svg" viewBox="0 0 1200 360" preserveAspectRatio="xMidYMid slice">
  <defs>
    <linearGradient id="bg" x1="0" y1="0" x2="1" y2="1">
      <stop offset="0%" stop-color="#b7aea2"/>
      <stop offset="52%" stop-color="#9a9084"/>
      <stop offset="100%" stop-color="#7b746d"/>
    </linearGradient>
  </defs>
  <rect width="1200" height="360" fill="url(#bg)"/>
  <g fill="#fff8ef" fill-opacity="0.3">
    <rect x="176" y="88" width="126" height="224" rx="10"/>
    <rect x="328" y="64" width="138" height="248" rx="10"/>
    <rect x="492" y="100" width="126" height="212" rx="10"/>
    <rect x="644" y="76" width="146" height="236" rx="10"/>
    <rect x="818" y="112" width="132" height="200" rx="10"/>
  </g>
  <g fill="none" stroke="#fff8ef" stroke-opacity="0.72" stroke-width="5" stroke-linecap="round">
    <path d="M208 128 H268"/>
    <path d="M208 156 H260"/>
    <path d="M362 108 H430"/>
    <path d="M362 138 H420"/>
    <path d="M526 138 H586"/>
    <path d="M526 166 H578"/>
    <path d="M680 116 H746"/>
    <path d="M680 146 H736"/>
    <path d="M852 150 H916"/>
    <path d="M852 178 H904"/>
  </g>
  <g fill="#fff8ef" fill-opacity="0.48">
    <rect x="934" y="260" width="132" height="18" rx="9"/>
    <rect x="140" y="312" width="950" height="16" rx="8"/>
  </g>
</svg>
