<svg xmlns="http://www.w3.org/2000/svg" viewBox="0 0 1200 360" preserveAspectRatio="xMidYMid slice">
  <defs>
    <linearGradient id="bg" x1="0" y1="0" x2="1" y2="1">
      <stop offset="0%" stop-color="#b5adbc"/>
      <stop offset="54%" stop-color="#94899d"/>
      <stop offset="100%" stop-color="#746b82"/>
    </linearGradient>
  </defs>
  <rect width="1200" height="360" fill="url(#bg)"/>
  <g fill="#f7f3fb" fill-opacity="0.3">
    <rect x="150" y="104" width="170" height="214" rx="12"/>
    <rect x="374" y="70" width="220" height="248" rx="12"/>
    <rect x="650" y="120" width="170" height="198" rx="12"/>
    <rect x="874" y="92" width="176" height="226" rx="12"/>
  </g>
  <g fill="#fdf9ff" fill-opacity="0.7">
    <rect x="186" y="138" width="24" height="24" rx="4"/>
    <rect x="238" y="138" width="24" height="24" rx="4"/>
    <rect x="186" y="194" width="24" height="24" rx="4"/>
    <rect x="238" y="194" width="24" height="24" rx="4"/>
    <rect x="426" y="112" width="28" height="28" rx="4"/>
    <rect x="510" y="112" width="28" height="28" rx="4"/>
    <rect x="426" y="176" width="28" height="28" rx="4"/>
    <rect x="510" y="176" width="28" height="28" rx="4"/>
    <rect x="694" y="156" width="26" height="26" rx="4"/>
    <rect x="748" y="156" width="26" height="26" rx="4"/>
    <rect x="920" y="132" width="26" height="26" rx="4"/>
    <rect x="980" y="132" width="26" height="26" rx="4"/>
  </g>
  <g fill="#fdf9ff" fill-opacity="0.42">
    <rect x="118" y="318" width="986" height="18" rx="9"/>
  </g>
</svg>
