<svg xmlns="http://www.w3.org/2000/svg" viewBox="0 0 1600 520" preserveAspectRatio="xMidYMid slice">
  <defs>
    <linearGradient id="bg" x1="0" y1="0" x2="1" y2="1">
      <stop offset="0%" stop-color="#6d5a9a"/>
      <stop offset="50%" stop-color="#4d3b72"/>
      <stop offset="100%" stop-color="#2f2247"/>
    </linearGradient>
  </defs>
  <rect width="1600" height="520" fill="url(#bg)"/>
  <g fill="none" stroke="#ffffff" stroke-opacity="0.36" stroke-width="4">
    <polygon points="368,98 590,260 368,422 146,260"/>
    <polygon points="800,82 1042,260 800,438 558,260"/>
    <polygon points="1232,98 1454,260 1232,422 1010,260"/>
  </g>
  <g fill="#ffffff" fill-opacity="0.12">
    <polygon points="368,160 506,260 368,360 230,260"/>
    <polygon points="800,142 960,260 800,378 640,260"/>
    <polygon points="1232,160 1370,260 1232,360 1094,260"/>
  </g>
  <g stroke="#ffffff" stroke-opacity="0.45" stroke-width="7" stroke-linecap="round">
    <path d="M590 260 H558"/>
    <path d="M1042 260 H1010"/>
    <path d="M368 98 V422"/>
    <path d="M800 82 V438"/>
    <path d="M1232 98 V422"/>
  </g>
  <g fill="#ffffff" fill-opacity="0.58">
    <circle cx="368" cy="98" r="13"/>
    <circle cx="368" cy="422" r="13"/>
    <circle cx="800" cy="82" r="13"/>
    <circle cx="800" cy="438" r="13"/>
    <circle cx="1232" cy="98" r="13"/>
    <circle cx="1232" cy="422" r="13"/>
  </g>
</svg>
